<svg xmlns="http://www.w3.org/2000/svg" viewBox="0 0 1532.1124999999997 746" width="1532.1124999999997" height="746" style="--bg:#1a1b26;--fg:#a9b1d6;--line:#3d59a1;--accent:#7aa2f7;--muted:#565f89;background:var(--bg)">
<style>
  @import url('https://fonts.googleapis.com/css2?family=Inter:wght@400;500;600;700&amp;display=swap');
  text { font-family: 'Inter', system-ui, sans-serif; }
  svg {
    /* Derived from --bg and --fg (overridable via --line, --accent, etc.) */
    --_text:          var(--fg);
    --_text-sec:      var(--muted, color-mix(in srgb, var(--fg) 60%, var(--bg)));
    --_text-muted:    var(--muted, color-mix(in srgb, var(--fg) 40%, var(--bg)));
    --_text-faint:    color-mix(in srgb, var(--fg) 25%, var(--bg));
    --_line:          var(--line, color-mix(in srgb, var(--fg) 30%, var(--bg)));
    --_arrow:         var(--accent, color-mix(in srgb, var(--fg) 50%, var(--bg)));
    --_node-fill:     var(--surface, color-mix(in srgb, var(--fg) 3%, var(--bg)));
    --_node-stroke:   var(--border, color-mix(in srgb, var(--fg) 20%, var(--bg)));
    --_group-fill:    var(--bg);
    --_group-hdr:     color-mix(in srgb, var(--fg) 5%, var(--bg));
    --_inner-stroke:  color-mix(in srgb, var(--fg) 12%, var(--bg));
    --_key-badge:     color-mix(in srgb, var(--fg) 10%, var(--bg));
  }
</style>
<defs>
  <marker id="arrowhead" markerWidth="8" markerHeight="4.8" refX="8" refY="2.4" orient="auto">
    <polygon points="0 0, 8 2.4, 0 4.8" fill="var(--_arrow)" />
  </marker>
  <marker id="arrowhead-start" markerWidth="8" markerHeight="4.8" refX="0" refY="2.4" orient="auto-start-reverse">
    <polygon points="8 0, 0 2.4, 8 4.8" fill="var(--_arrow)" />
  </marker>
</defs>
<polyline points="115.5,520 115.5,595 697.1049999999998,595" fill="none" stroke="var(--_line)" stroke-width="0.75" marker-end="url(#arrowhead)" />
<polyline points="767.2574999999999,100 767.2574999999999,157" fill="none" stroke="var(--_line)" stroke-width="0.75" marker-end="url(#arrowhead)" />
<polyline points="456.28,310 456.28,385 466.9649999999999,385" fill="none" stroke="var(--_line)" stroke-width="0.75" marker-end="url(#arrowhead)" />
<polyline points="763.1549999999999,577 763.1549999999999,548.5 1261.6724999999997,548.5 1261.6724999999997,175 826.1574999999999,175" fill="none" stroke="var(--_line)" stroke-width="0.75" marker-end="url(#arrowhead)" />
<polyline points="763.1549999999999,577 763.1549999999999,548.5 1322.8525,548.5 1322.8525,385 1092.7275,385" fill="none" stroke="var(--_line)" stroke-width="0.75" marker-end="url(#arrowhead)" />
<polyline points="763.1549999999999,613 763.1549999999999,688 1335.8574999999998,688" fill="none" stroke="var(--_line)" stroke-width="0.75" marker-end="url(#arrowhead)" />
<polyline points="767.2574999999999,193 767.2574999999999,221.5 211,221.5 211,595 697.1049999999998,595" fill="none" stroke="var(--_line)" stroke-width="0.75" marker-end="url(#arrowhead)" />
<polyline points="767.2574999999999,193 767.2574999999999,221.5 300.19000000000005,221.5 300.19000000000005,367" fill="none" stroke="var(--_line)" stroke-width="0.75" marker-end="url(#arrowhead)" />
<polyline points="767.2574999999999,193 767.2574999999999,221.5 373.94000000000005,221.5 373.94000000000005,490 349.635,490" fill="none" stroke="var(--_line)" stroke-width="0.75" marker-end="url(#arrowhead)" />
<polyline points="767.2574999999999,193 767.2574999999999,221.5 698.3324999999999,221.5 698.3324999999999,262" fill="none" stroke="var(--_line)" stroke-width="0.75" marker-end="url(#arrowhead)" />
<polyline points="767.2574999999999,193 767.2574999999999,221.5 529.4399999999999,221.5 529.4399999999999,367" fill="none" stroke="var(--_line)" stroke-width="0.75" marker-end="url(#arrowhead)" />
<polyline points="767.2574999999999,193 767.2574999999999,221.5 850.8574999999998,221.5 850.8574999999998,262" fill="none" stroke="var(--_line)" stroke-width="0.75" marker-end="url(#arrowhead)" />
<polyline points="767.2574999999999,193 767.2574999999999,221.5 1033.8274999999999,221.5 1033.8274999999999,367" fill="none" stroke="var(--_line)" stroke-width="0.75" marker-end="url(#arrowhead)" />
<polyline points="767.2574999999999,193 767.2574999999999,221.5 1384.0324999999998,221.5 1384.0324999999998,670" fill="none" stroke="var(--_line)" stroke-width="0.75" marker-end="url(#arrowhead)" />
<polyline points="300.19000000000005,403 300.19000000000005,431.5 438.25,431.5 438.25,490 503.18500000000006,490" fill="none" stroke="var(--_line)" stroke-width="0.75" marker-end="url(#arrowhead)" />
<polyline points="300.19000000000005,403 300.19000000000005,595 697.1049999999998,595" fill="none" stroke="var(--_line)" stroke-width="0.75" marker-end="url(#arrowhead)" />
<polyline points="426.41,508 426.41,595 697.1049999999998,595" fill="none" stroke="var(--_line)" stroke-width="0.75" marker-end="url(#arrowhead)" />
<polyline points="698.3324999999999,298 698.3324999999999,338.5 619.7749999999999,338.5 619.7749999999999,385 591.915,385" fill="none" stroke="var(--_line)" stroke-width="0.75" marker-end="url(#arrowhead)" />
<polyline points="698.3324999999999,298 698.3324999999999,338.5 721.9949999999999,338.5 721.9949999999999,595 697.1049999999998,595" fill="none" stroke="var(--_line)" stroke-width="0.75" marker-end="url(#arrowhead)" />
<polyline points="529.4399999999999,403 529.4399999999999,490 503.18500000000006,490" fill="none" stroke="var(--_line)" stroke-width="0.75" marker-end="url(#arrowhead)" />
<polyline points="529.4399999999999,403 529.4399999999999,431.5 763.1549999999999,431.5 763.1549999999999,577" fill="none" stroke="var(--_line)" stroke-width="0.75" marker-end="url(#arrowhead)" />
<polyline points="850.8574999999998,298 850.8574999999998,595 829.2049999999999,595" fill="none" stroke="var(--_line)" stroke-width="0.75" marker-end="url(#arrowhead)" />
<polyline points="1384.0324999999998,670 1384.0324999999998,641.5 1448.0724999999998,641.5 1448.0724999999998,595 829.2049999999999,595" fill="none" stroke="var(--_line)" stroke-width="0.75" marker-end="url(#arrowhead)" />
<polyline points="1033.8274999999999,403 1033.8274999999999,431.5 1074.8624999999997,431.5 1074.8624999999997,490 1086.8575,490" fill="none" stroke="var(--_line)" stroke-width="0.75" marker-end="url(#arrowhead)" />
<polyline points="1033.8274999999999,403 1033.8274999999999,431.5 962.5799999999999,431.5 962.5799999999999,595 829.2049999999999,595" fill="none" stroke="var(--_line)" stroke-width="0.75" marker-end="url(#arrowhead)" />
<polyline points="1149.3325,472 1149.3325,431.5 1187.415,431.5 1187.415,175 826.1574999999999,175" fill="none" stroke="var(--_line)" stroke-width="0.75" marker-end="url(#arrowhead)" />
<polyline points="1149.3325,508 1149.3325,595 829.2049999999999,595" fill="none" stroke="var(--_line)" stroke-width="0.75" marker-end="url(#arrowhead)" />
<polyline points="763.1549999999999,577 763.1549999999999,577 1254.1133333333332,577 1254.1133333333332,595 1339.0949999999998,595 1339.0949999999998,613 1169.1316666666667,613 1169.1316666666667,595 829.2049999999999,595" fill="none" stroke="var(--_line)" stroke-width="0.75" stroke-dasharray="4 4" marker-end="url(#arrowhead)" />
<polyline points="767.2574999999999,157 767.2574999999999,157 888.3408333333333,157 888.3408333333333,175 900.7774999999999,175 900.7774999999999,193 875.9041666666666,193 875.9041666666666,175 826.1574999999999,175" fill="none" stroke="var(--_line)" stroke-width="0.75" stroke-dasharray="4 4" marker-end="url(#arrowhead)" />
<polyline points="426.41,472 426.41,472 597.8079166666666,472 597.8079166666666,490 616.7324999999998,490 616.7324999999998,508 578.8833333333332,508 578.8833333333332,490 503.18500000000006,490" fill="none" stroke="var(--_line)" stroke-width="0.75" stroke-dasharray="4 4" marker-end="url(#arrowhead)" />
<polyline points="529.4399999999999,367 529.4399999999999,367 646.9483333333333,367 646.9483333333333,385 657.9549999999999,385 657.9549999999999,403 635.9416666666666,403 635.9416666666666,385 591.915,385" fill="none" stroke="var(--_line)" stroke-width="0.75" stroke-dasharray="4 4" marker-end="url(#arrowhead)" />
<polyline points="850.8574999999998,262 850.8574999999998,262 940.9574999999999,262 940.9574999999999,280 948.6274999999998,280 948.6274999999998,298 933.2874999999998,298 933.2874999999998,280 902.6074999999998,280" fill="none" stroke="var(--_line)" stroke-width="0.75" stroke-dasharray="4 4" marker-end="url(#arrowhead)" />
<polyline points="1384.0324999999998,670 1384.0324999999998,670 1465.790833333333,670 1465.790833333333,688 1472.5074999999997,688 1472.5074999999997,706 1459.0741666666663,706 1459.0741666666663,688 1432.2074999999998,688" fill="none" stroke="var(--_line)" stroke-width="0.75" stroke-dasharray="4 4" marker-end="url(#arrowhead)" />
<polyline points="1033.8274999999999,367 1033.8274999999999,367 1134.9504166666666,367 1134.9504166666666,385 1143.395,385 1143.395,403 1126.5058333333332,403 1126.5058333333332,385 1092.7275,385" fill="none" stroke="var(--_line)" stroke-width="0.75" stroke-dasharray="4 4" marker-end="url(#arrowhead)" />
<rect x="36" y="535" width="159" height="27" rx="4" ry="4" fill="var(--bg)" stroke="var(--_inner-stroke)" stroke-width="0.5" />
<text x="115.5" y="548.5" text-anchor="middle" dy="0.35em" font-size="11" font-weight="400" fill="var(--_text-muted)">/start /projects /history</text>
<rect x="739.2375" y="115" width="56.04" height="27" rx="4" ry="4" fill="var(--bg)" stroke="var(--_inner-stroke)" stroke-width="0.5" />
<text x="767.2574999999999" y="128.5" text-anchor="middle" dy="0.35em" font-size="11" font-weight="400" fill="var(--_text-muted)">/status</text>
<rect x="408.23999999999995" y="325" width="96.08" height="27" rx="4" ry="4" fill="var(--bg)" stroke="var(--_inner-stroke)" stroke-width="0.5" />
<text x="456.28" y="338.5" text-anchor="middle" dy="0.35em" font-size="11" font-weight="400" fill="var(--_text-muted)">/brainstorming</text>
<rect x="1213.6324999999997" y="371.5" width="96.08" height="27" rx="4" ry="4" fill="var(--bg)" stroke="var(--_inner-stroke)" stroke-width="0.5" />
<text x="1261.6724999999997" y="385" text-anchor="middle" dy="0.35em" font-size="11" font-weight="400" fill="var(--_text-muted)">Select project</text>
<rect x="1277.6725" y="476.5" width="90.36" height="27" rx="4" ry="4" fill="var(--bg)" stroke="var(--_inner-stroke)" stroke-width="0.5" />
<text x="1322.8525" y="490" text-anchor="middle" dy="0.35em" font-size="11" font-weight="400" fill="var(--_text-muted)">+ New project</text>
<rect x="726.5549999999998" y="628" width="73.2" height="27" rx="4" ry="4" fill="var(--bg)" stroke="var(--_inner-stroke)" stroke-width="0.5" />
<text x="763.1549999999999" y="641.5" text-anchor="middle" dy="0.35em" font-size="11" font-weight="400" fill="var(--_text-muted)">Clone repo</text>
<rect x="191.56" y="371.5" width="38.88" height="27" rx="4" ry="4" fill="var(--bg)" stroke="var(--_inner-stroke)" stroke-width="0.5" />
<text x="211" y="385" text-anchor="middle" dy="0.35em" font-size="11" font-weight="400" fill="var(--_text-muted)">Back</text>
<rect x="280.75000000000006" y="266.5" width="38.88" height="27" rx="4" ry="4" fill="var(--bg)" stroke="var(--_inner-stroke)" stroke-width="0.5" />
<text x="300.19000000000005" y="280" text-anchor="middle" dy="0.35em" font-size="11" font-weight="400" fill="var(--_text-muted)">Plan</text>
<rect x="351.64000000000004" y="325" width="44.6" height="27" rx="4" ry="4" fill="var(--bg)" stroke="var(--_inner-stroke)" stroke-width="0.5" />
<text x="373.94000000000005" y="338.5" text-anchor="middle" dy="0.35em" font-size="11" font-weight="400" fill="var(--_text-muted)">Build</text>
<rect x="661.7324999999998" y="208" width="73.2" height="27" rx="4" ry="4" fill="var(--bg)" stroke="var(--_inner-stroke)" stroke-width="0.5" />
<text x="698.3324999999999" y="221.5" text-anchor="middle" dy="0.35em" font-size="11" font-weight="400" fill="var(--_text-muted)">Brainstorm</text>
<rect x="504.2799999999999" y="266.5" width="50.32" height="27" rx="4" ry="4" fill="var(--bg)" stroke="var(--_inner-stroke)" stroke-width="0.5" />
<text x="529.4399999999999" y="280" text-anchor="middle" dy="0.35em" font-size="11" font-weight="400" fill="var(--_text-muted)">Resume</text>
<rect x="808.5374999999998" y="208" width="84.64" height="27" rx="4" ry="4" fill="var(--bg)" stroke="var(--_inner-stroke)" stroke-width="0.5" />
<text x="850.8574999999998" y="221.5" text-anchor="middle" dy="0.35em" font-size="11" font-weight="400" fill="var(--_text-muted)">New worktree</text>
<rect x="988.6474999999999" y="266.5" width="90.36" height="27" rx="4" ry="4" fill="var(--bg)" stroke="var(--_inner-stroke)" stroke-width="0.5" />
<text x="1033.8274999999999" y="280" text-anchor="middle" dy="0.35em" font-size="11" font-weight="400" fill="var(--_text-muted)">+ New project</text>
<rect x="1347.4325" y="418" width="73.2" height="27" rx="4" ry="4" fill="var(--bg)" stroke="var(--_inner-stroke)" stroke-width="0.5" />
<text x="1384.0324999999998" y="431.5" text-anchor="middle" dy="0.35em" font-size="11" font-weight="400" fill="var(--_text-muted)">Clone repo</text>
<rect x="395.93" y="418" width="84.64" height="27" rx="4" ry="4" fill="var(--bg)" stroke="var(--_inner-stroke)" stroke-width="0.5" />
<text x="438.25" y="431.5" text-anchor="middle" dy="0.35em" font-size="11" font-weight="400" fill="var(--_text-muted)">Text or Skip</text>
<rect x="275.03000000000003" y="476.5" width="50.32" height="27" rx="4" ry="4" fill="var(--bg)" stroke="var(--_inner-stroke)" stroke-width="0.5" />
<text x="300.19000000000005" y="490" text-anchor="middle" dy="0.35em" font-size="11" font-weight="400" fill="var(--_text-muted)">Cancel</text>
<rect x="375.51000000000005" y="535" width="101.8" height="27" rx="4" ry="4" fill="var(--bg)" stroke="var(--_inner-stroke)" stroke-width="0.5" />
<text x="426.41" y="548.5" text-anchor="middle" dy="0.35em" font-size="11" font-weight="400" fill="var(--_text-muted)">Start or Cancel</text>
<rect x="600.3349999999998" y="325" width="38.88" height="27" rx="4" ry="4" fill="var(--bg)" stroke="var(--_inner-stroke)" stroke-width="0.5" />
<text x="619.7749999999999" y="338.5" text-anchor="middle" dy="0.35em" font-size="11" font-weight="400" fill="var(--_text-muted)">Text</text>
<rect x="696.8349999999999" y="418" width="50.32" height="27" rx="4" ry="4" fill="var(--bg)" stroke="var(--_inner-stroke)" stroke-width="0.5" />
<text x="721.9949999999999" y="431.5" text-anchor="middle" dy="0.35em" font-size="11" font-weight="400" fill="var(--_text-muted)">Cancel</text>
<rect x="498.55999999999995" y="418" width="61.760000000000005" height="27" rx="4" ry="4" fill="var(--bg)" stroke="var(--_inner-stroke)" stroke-width="0.5" />
<text x="529.4399999999999" y="431.5" text-anchor="middle" dy="0.35em" font-size="11" font-weight="400" fill="var(--_text-muted)">Run Plan</text>
<rect x="746.5749999999998" y="476.5" width="33.16" height="27" rx="4" ry="4" fill="var(--bg)" stroke="var(--_inner-stroke)" stroke-width="0.5" />
<text x="763.1549999999999" y="490" text-anchor="middle" dy="0.35em" font-size="11" font-weight="400" fill="var(--_text-muted)">End</text>
<rect x="802.8174999999999" y="418" width="96.08" height="27" rx="4" ry="4" fill="var(--bg)" stroke="var(--_inner-stroke)" stroke-width="0.5" />
<text x="850.8574999999998" y="431.5" text-anchor="middle" dy="0.35em" font-size="11" font-weight="400" fill="var(--_text-muted)">Done or Cancel</text>
<rect x="1400.0324999999998" y="628" width="96.08" height="27" rx="4" ry="4" fill="var(--bg)" stroke="var(--_inner-stroke)" stroke-width="0.5" />
<text x="1448.0724999999998" y="641.5" text-anchor="middle" dy="0.35em" font-size="11" font-weight="400" fill="var(--_text-muted)">Done or Cancel</text>
<rect x="1038.2624999999998" y="418" width="73.2" height="27" rx="4" ry="4" fill="var(--bg)" stroke="var(--_inner-stroke)" stroke-width="0.5" />
<text x="1074.8624999999997" y="431.5" text-anchor="middle" dy="0.35em" font-size="11" font-weight="400" fill="var(--_text-muted)">Valid name</text>
<rect x="937.42" y="476.5" width="50.32" height="27" rx="4" ry="4" fill="var(--bg)" stroke="var(--_inner-stroke)" stroke-width="0.5" />
<text x="962.5799999999999" y="490" text-anchor="middle" dy="0.35em" font-size="11" font-weight="400" fill="var(--_text-muted)">Cancel</text>
<rect x="1159.395" y="325" width="56.04" height="27" rx="4" ry="4" fill="var(--bg)" stroke="var(--_inner-stroke)" stroke-width="0.5" />
<text x="1187.415" y="338.5" text-anchor="middle" dy="0.35em" font-size="11" font-weight="400" fill="var(--_text-muted)">Created</text>
<rect x="1129.8925" y="535" width="38.88" height="27" rx="4" ry="4" fill="var(--bg)" stroke="var(--_inner-stroke)" stroke-width="0.5" />
<text x="1149.3325" y="548.5" text-anchor="middle" dy="0.35em" font-size="11" font-weight="400" fill="var(--_text-muted)">Skip</text>
<rect x="1319.6549999999997" y="581.5" width="38.88" height="27" rx="4" ry="4" fill="var(--bg)" stroke="var(--_inner-stroke)" stroke-width="0.5" />
<text x="1339.0949999999998" y="595" text-anchor="middle" dy="0.35em" font-size="11" font-weight="400" fill="var(--_text-muted)">Page</text>
<rect x="844.1574999999999" y="161.5" width="113.24000000000001" height="27" rx="4" ry="4" fill="var(--bg)" stroke="var(--_inner-stroke)" stroke-width="0.5" />
<text x="900.7774999999999" y="175" text-anchor="middle" dy="0.35em" font-size="11" font-weight="400" fill="var(--_text-muted)">Status Sync Queue</text>
<rect x="588.7124999999999" y="476.5" width="56.04" height="27" rx="4" ry="4" fill="var(--bg)" stroke="var(--_inner-stroke)" stroke-width="0.5" />
<text x="616.7324999999998" y="490" text-anchor="middle" dy="0.35em" font-size="11" font-weight="400" fill="var(--_text-muted)">Invalid</text>
<rect x="609.915" y="371.5" width="96.08" height="27" rx="4" ry="4" fill="var(--bg)" stroke="var(--_inner-stroke)" stroke-width="0.5" />
<text x="657.9549999999999" y="385" text-anchor="middle" dy="0.35em" font-size="11" font-weight="400" fill="var(--_text-muted)">Chat done save</text>
<rect x="920.6074999999998" y="266.5" width="56.04" height="27" rx="4" ry="4" fill="var(--bg)" stroke="var(--_inner-stroke)" stroke-width="0.5" />
<text x="948.6274999999998" y="280" text-anchor="middle" dy="0.35em" font-size="11" font-weight="400" fill="var(--_text-muted)">Invalid</text>
<rect x="1450.2074999999998" y="674.5" width="44.6" height="27" rx="4" ry="4" fill="var(--bg)" stroke="var(--_inner-stroke)" stroke-width="0.5" />
<text x="1472.5074999999997" y="688" text-anchor="middle" dy="0.35em" font-size="11" font-weight="400" fill="var(--_text-muted)">Retry</text>
<rect x="1115.375" y="371.5" width="56.04" height="27" rx="4" ry="4" fill="var(--bg)" stroke="var(--_inner-stroke)" stroke-width="0.5" />
<text x="1143.395" y="385" text-anchor="middle" dy="0.35em" font-size="11" font-weight="400" fill="var(--_text-muted)">Invalid</text>
<rect x="697.1049999999998" y="577" width="132.10000000000002" height="36" rx="0" ry="0" fill="var(--_node-fill)" stroke="var(--_node-stroke)" stroke-width="0.75" />
<rect x="708.3575" y="157" width="117.80000000000001" height="36" rx="0" ry="0" fill="var(--_node-fill)" stroke="var(--_node-stroke)" stroke-width="0.75" />
<rect x="248.44000000000005" y="367" width="103.5" height="36" rx="0" ry="0" fill="var(--_node-fill)" stroke="var(--_node-stroke)" stroke-width="0.75" />
<rect x="349.635" y="472" width="153.55" height="36" rx="0" ry="0" fill="var(--_node-fill)" stroke="var(--_node-stroke)" stroke-width="0.75" />
<rect x="621.5574999999999" y="262" width="153.55" height="36" rx="0" ry="0" fill="var(--_node-fill)" stroke="var(--_node-stroke)" stroke-width="0.75" />
<rect x="466.9649999999999" y="367" width="124.95" height="36" rx="0" ry="0" fill="var(--_node-fill)" stroke="var(--_node-stroke)" stroke-width="0.75" />
<rect x="799.1074999999998" y="262" width="103.5" height="36" rx="0" ry="0" fill="var(--_node-fill)" stroke="var(--_node-stroke)" stroke-width="0.75" />
<rect x="1335.8574999999998" y="670" width="96.35000000000001" height="36" rx="0" ry="0" fill="var(--_node-fill)" stroke="var(--_node-stroke)" stroke-width="0.75" />
<rect x="974.9274999999999" y="367" width="117.80000000000001" height="36" rx="0" ry="0" fill="var(--_node-fill)" stroke="var(--_node-stroke)" stroke-width="0.75" />
<rect x="1086.8575" y="472" width="124.95" height="36" rx="0" ry="0" fill="var(--_node-fill)" stroke="var(--_node-stroke)" stroke-width="0.75" />
<circle cx="115.5" cy="490" r="30" fill="var(--_node-fill)" stroke="var(--_node-stroke)" stroke-width="0.75" />
<circle cx="767.2574999999999" cy="70" r="30" fill="var(--_node-fill)" stroke="var(--_node-stroke)" stroke-width="0.75" />
<circle cx="456.28" cy="280" r="30" fill="var(--_node-fill)" stroke="var(--_node-stroke)" stroke-width="0.75" />
<text x="763.1549999999997" y="595" text-anchor="middle" dy="0.35em" font-size="13" font-weight="500" fill="var(--_text)">SELECT_PROJECT</text>
<text x="767.2574999999999" y="175" text-anchor="middle" dy="0.35em" font-size="13" font-weight="500" fill="var(--_text)">PROJECT_MENU</text>
<text x="300.19000000000005" y="385" text-anchor="middle" dy="0.35em" font-size="13" font-weight="500" fill="var(--_text)">ENTER_IDEA</text>
<text x="426.40999999999997" y="490" text-anchor="middle" dy="0.35em" font-size="13" font-weight="500" fill="var(--_text)">SELECT_ITERATIONS</text>
<text x="698.3324999999999" y="280" text-anchor="middle" dy="0.35em" font-size="13" font-weight="500" fill="var(--_text)">BRAINSTORM_PROMPT</text>
<text x="529.4399999999999" y="385" text-anchor="middle" dy="0.35em" font-size="13" font-weight="500" fill="var(--_text)">BRAINSTORMING</text>
<text x="850.8574999999998" y="280" text-anchor="middle" dy="0.35em" font-size="13" font-weight="500" fill="var(--_text)">ENTER_NAME</text>
<text x="1384.0324999999998" y="688" text-anchor="middle" dy="0.35em" font-size="13" font-weight="500" fill="var(--_text)">ENTER_URL</text>
<text x="1033.8274999999999" y="385" text-anchor="middle" dy="0.35em" font-size="13" font-weight="500" fill="var(--_text)">PROJECT_NAME</text>
<text x="1149.3325" y="490" text-anchor="middle" dy="0.35em" font-size="13" font-weight="500" fill="var(--_text)">GITHUB_CHOICE</text>
<text x="115.5" y="490" text-anchor="middle" dy="0.35em" font-size="13" font-weight="500" fill="var(--_text)"> </text>
<text x="767.2574999999999" y="70" text-anchor="middle" dy="0.35em" font-size="13" font-weight="500" fill="var(--_text)"> </text>
<text x="456.28" y="280" text-anchor="middle" dy="0.35em" font-size="13" font-weight="500" fill="var(--_text)"> </text>
</svg>